<svg xmlns="http://www.w3.org/2000/svg" viewBox="-0.5 -0.5 8 8">
<rect x="-0.5" y="-0.5" width="8" height="8" fill="black"/>
<path d="M3.36 6.936C2.72 6.936 2.152 6.832 1.656 6.624C1.168 6.416 0.78 6.128 0.492 5.76C0.204 5.392 0.04 4.976 0 4.512H2.556C2.588 4.712 2.672 4.86 2.808 4.956C2.952 5.052 3.132 5.1 3.348 5.1C3.484 5.1 3.592 5.072 3.672 5.016C3.752 4.952 3.792 4.876 3.792 4.788C3.792 4.636 3.708 4.528 3.54 4.464C3.372 4.4 3.088 4.328 2.688 4.248C2.2 4.152 1.796 4.048 1.476 3.936C1.164 3.824 0.888 3.632 0.648 3.36C0.416 3.088 0.3 2.712 0.3 2.232C0.3 1.816 0.408 1.44 0.624 1.104C0.848 0.76 1.176 0.492 1.608 0.3C2.04 0.0999999 2.564 0 3.18 0C4.092 0 4.804 0.224 5.316 0.672C5.836 1.12 6.148 1.704 6.252 2.424H3.888C3.848 2.24 3.764 2.1 3.636 2.004C3.508 1.9 3.336 1.848 3.12 1.848C2.984 1.848 2.88 1.876 2.808 1.932C2.736 1.98 2.7 2.056 2.7 2.16C2.7 2.296 2.784 2.4 2.952 2.472C3.12 2.536 3.388 2.604 3.756 2.676C4.244 2.772 4.656 2.88 4.992 3C5.328 3.12 5.62 3.328 5.868 3.624C6.116 3.912 6.24 4.312 6.24 4.824C6.24 5.224 6.124 5.584 5.892 5.904C5.66 6.224 5.324 6.476 4.884 6.66C4.452 6.844 3.944 6.936 3.36 6.936Z" fill="white"/>
</svg>
